<?xml version="1.0" encoding="UTF-8"?>
<svg id="Layer_1" xmlns="http://www.w3.org/2000/svg" version="1.1" viewBox="0 0 1876.8 466.5">
  <!-- Generator: Adobe Illustrator 29.1.0, SVG Export Plug-In . SVG Version: 2.1.0 Build 142)  -->
  <defs>
    <style>
      .st0 {
        fill: #f8954a;
      }

      .st1 {
        fill: #c02b5d;
      }

      .st2 {
        fill: #f14e3d;
      }

      .st3 {
        fill: #f68537;
      }

      .st4 {
        fill: #b73f6b;
      }

      .st5 {
        fill: #e02a42;
      }

      .st6 {
        fill: #925f9c;
      }

      .st7 {
        fill: #ae6b94;
      }

      .st8 {
        fill: #fff;
      }

      .st9 {
        fill: #cc677d;
      }

      .st10 {
        fill: #f7693b;
      }

      .st11 {
        fill: #231f20;
      }

      .st12 {
        fill: #389bdd;
      }

      .st13 {
        fill: #a04372;
      }

      .st14 {
        fill: #905a9e;
      }

      .st15 {
        fill: #773f86;
      }

      .st16 {
        fill: #6d4291;
      }

      .st17 {
        fill: #ca536f;
      }

      .st18 {
        fill: #ec3e40;
      }

      .st19 {
        fill: #40c1ea;
      }

      .st20 {
        fill: #3c82d4;
      }

      .st21 {
        fill: #a55990;
      }

      .st22 {
        fill: #8e3f80;
      }

      .st23 {
        fill: #3e79c7;
      }

      .st24 {
        fill: #756ec4;
      }

      .st25 {
        fill: #3d68c5;
      }

      .st26 {
        fill: #c53551;
      }

      .st27 {
        fill: #4547ae;
      }

      .st28 {
        fill: #594cb4;
      }

      .st29 {
        fill: #7b61b2;
      }

      .st30 {
        fill: #fdfefe;
      }

      .st31 {
        fill: #9c396f;
      }

      .st32 {
        fill: #fdfdfd;
      }

      .st33 {
        fill: #c26283;
      }
    </style>
  </defs>
  <g>
    <g>
      <path class="st11" d="M98.3,430.8c-.2,0-.4,0-.6,0-3.8-.2-9.5-3.8-16.9-10.8-4-3.8-11-10.9-12.1-15.7-2.7-11.7,3.8-17.2,9-21.6,1.3-1.1,2.5-2.1,3.6-3.3,4.4-4.4,8.7-8.8,13.1-13.2,15.4-15.5,31.2-31.6,47.5-46.6l.8-.8,1.1-.3c1.3-.4,2.7-.6,4-.6,2.6,0,4.6.8,6,1.7.2-.3.5-.6.7-.9-.2-.2-.4-.5-.6-.7-7-9,0-15.9,3.7-19.5,1-1,2-2,2.8-2.9-14.5-26.6-18.1-58.4-9.7-87.8,8.6-30.2,28.3-54.8,55.6-69.4,17.4-9.3,35.8-14,54.6-14,36.3,0,71.1,18,93,48.1,21.7,29.8,27.5,67.5,15.9,103.3-15.2,47-59.1,78.5-109.3,78.5s-39.2-5-56.6-14.5c-.9.9-2,2.1-2.8,3-3.4,3.7-6.2,7-9.9,7.3-.2,0-.5,0-.8,0-4,0-6.9-2.7-9.1-4.6-.2-.2-.4-.3-.6-.5-.6.6-1.3,1.4-1.8,2h0c1.1,1.9,4,6.9-.4,12.2v.2c-.1,0-66.8,65.8-66.8,65.8h0c-3.1,2.8-8.2,5.8-13.4,5.8h0Z"/>
      <path class="st8" d="M261,129.3c69.6,0,128.7,68.9,104.1,144.8-15.4,47.4-58.9,75-104.5,75s-38.7-4.9-56.7-15.2c-3.1,0-9.6,10.7-13,11-.1,0-.2,0-.3,0-3.8,0-7.1-6-9.9-6s-.3,0-.5,0c-1.2.3-6,5.5-6.3,6.9-.8,3,4.7,5.6,1.1,10l-66.4,65.6c-2.5,2.3-6.5,4.4-10,4.4h-.4c-5.3-.2-23.2-17.4-24.4-22.6-2.5-11.1,5.2-14.2,11.3-20.3,20-20,39.7-40.5,60.4-59.6.9-.3,1.7-.4,2.5-.4,3.6,0,5.5,2.9,6.8,2.9s.1,0,.2,0c.9-.1,7.1-8.1,6.6-8.9-.1-.2-2.2-.3-3.5-2-6.5-8.4,5.5-12.4,8.3-19.3-31.1-53.6-12.2-123.6,42.5-152.9,17.3-9.3,35.1-13.4,52.3-13.4M261,119.3v10-10h0c-19.7,0-38.8,4.9-57,14.6-28.5,15.2-49.1,40.9-58.1,72.4-4.4,15.5-5.7,31.5-3.9,47.5,1.7,14.3,5.8,28,12.3,40.8,0,0-.1.1-.2.2-2.3,2.3-5.2,5.2-6.9,9.1-.8,2-1.7,5.2-1,9.1-1.3.1-2.6.4-4,.8l-2.1.7-1.6,1.5c-16.3,15.1-32.3,31.2-47.7,46.7-4.3,4.3-8.7,8.8-13.1,13.2-1,1-2.1,2-3.3,3-5.2,4.5-14,11.9-10.6,26.6,1.1,4.6,5.6,10.8,13.5,18.2,12.5,11.8,18,12.1,20.1,12.2.3,0,.6,0,.9,0,8.4,0,14.9-5.4,16.8-7h.2c0-.1.2-.3.2-.3l66.4-65.6.3-.3.3-.4c2.4-2.8,3.3-5.6,3.5-8,1.4.5,2.9.8,4.5.8s.8,0,1.2,0c5.6-.5,9.5-4.8,13.2-8.9,0,0,0,0,0-.1,17.3,8.7,36.3,13.3,55.6,13.3s49-7.4,69.3-21.5c21.2-14.7,36.7-35.6,44.7-60.5,6.3-19.4,7.8-38.9,4.5-58.1-3-17.7-10.3-34.9-21.1-49.7-22.8-31.4-59.1-50.1-97-50.1h0Z"/>
    </g>
    <path class="st12" d="M192.4,62.9l2.2.8c1.9,5,7.3,5.6,16.3,2,3.2-.7,6.1-.6,6.2,3.2l-20.4,68.2-3.2,3.8c-2.4,1.8-6.6,5.4-9,7.5-27.2,23.7-43.2,57-42,93.5l-1.5-.2c.5,5.8-3.4,7.3-7,2.6l-12.8-42.5c-3.4-.1-5.6-1.1-6.7-2.9-7.3-29-15.3-57.8-22-87-1.8-3.1,6.7-3.6,7.7-2.9,3.2,1.8,7.1,14.8,8.3,18.8,3.3,15,6.9,29.8,10.7,44.6l40.7-90.1c-8.4,1.7-16.6,3.7-24.9,6.1-9.8,3.5-13.8-2.3-8.5-9.5,22-5.6,43.9-10.9,66-16h0Z"/>
    <path class="st2" d="M391.4,85.9c.3,4.8,5.1,7.5,9.7,8.3,13.5,8.1,7.8,34.1-4.9,40.3l-2.4,4c-7.8,7-16.9,13.2-26,18.4l-1.2,2.1c-1.4,5.1-4.1,14.1-10.1,8.9-11.7-15.4-34.9-33.3-53-40l.2-2.5c7-3.7,15.1-5.1,22.8-3.7,4.8-.5,28.5-15.6,33.9-19.3,13-7.4,11.1-12.8-5.7-16.1-6.3-2.4-5.6-8.3-.2-10.5,12.3,3.5,24.7,6.1,37,10h0Z"/>
    <path class="st10" d="M314.4,64.9c13.4,3.6,26.7,7.2,40,11,.5,1.9-3.2,5.1-2.5,6,5.1,6.8,27.5,4.6,16.1,17-4.6,5-13.8,9-19.5,12.6-6.3,3.9-14.2,11-21.9,12.2-2.8.4-4.6-.9-6.6-.7-5.1.5-12.4,1.8-16.6,4.9-15.7-5.8-39.4-8.5-56-7l-.5-2.2c20.8-15.3,41.3-30.9,61.5-46.8-1-3.4,1.9-8.3,6-7h0Z"/>
    <path class="st1" d="M196.4,352.9c1.5-1.1,7.6-7.6,8.5-7.6,1.5-.2,23.1,8.6,27.9,9.8,43.4,10.5,90.2-4.3,118.6-38.7l14-20.5-22.2,81.3c-4,9.5-12,13.1-22,11.5l-124.7-35.8h0Z"/>
    <path class="st19" d="M126.4,78.9c1.9,3.7-2.8,6.9,1.5,8.6,11-1.1,22.4-6.2,33.1-7.6,1.6-.2,1.6-.2,1.4,1.4l-43,95c-1.3.9-1.7-1.1-2-2-5-15.1-9.5-49.9-16.7-60.9-.6-.9-.2-2.4-.4-2.5-.3-.3-7.2,0-7.9.9-.9-3.9-3.1-7.3-2.6-12,1.9-17.2,23.9-17.8,36.6-21h0Z"/>
    <path class="st0" d="M308.4,71.9c.1,0,2.9,1.3,1.5,2l-62.5,47c-6.2.6-14.9,3.1-21,5l-1.7-1.4,17-59.9c4.5-9.8,15.1-8,23.8-6.3,12.9,2.6,29.5,6.8,41.9,11.3l1,2.4h0Z"/>
    <path class="st18" d="M391.4,85.9c7.4,2.3,17.5,3.4,22.4,10.1,7.9,10.7.5,22.9-2.4,33.9-6.6,7.3-9.9,13.9-9.3,23.9-6.1,8.8-10,19-11.5,30.4l-6.3,18.5c-2.2,4.6-7,3.3-9.9.1-3-9.7-11.8-26.9-18-35,8.1,1.3,6.3-9,10-12.5,1.4-1.3,4.2-1.7,5.9-3.1,6.9-5.6,11.8-8.3,18-12.9,2.2-1.7,2.9-4.9,4.6-6.4,2.3-2.2,4.2-1.2,6.6-5.4,4.8-8.2,8.8-23.6.2-30.6-2.3-1.9-5.5-1.6-7.8-3.2-.7-.5-8-8.3-2.6-7.9h0Z"/>
    <path class="st3" d="M314.4,64.9c-2.6-.2-3.3,5.1-6,7-12.5-3.5-39.1-11.7-50.6-12.9-5.7-.6-10.2.3-13.9,4.9l-17.5,62c-3.4,1-6.8,3.2-9.5,4-1.4.4-1.8,0-1.4-1.4l18.9-68.1c3.8-9.3,10.3-13.4,20.3-12.2,17.1,2.1,42.4,12,59.8,16.7h0Z"/>
    <path class="st27" d="M235.4,373.9l-51.5,12c-4.6,1.7-17.9-2.4-18.4-7.7-.2-2.5,17.6-17.1,19.3-21.2l50.5,16.9h0Z"/>
    <path class="st20" d="M114.4,198.9l8.1.6,13,43.7,2.9,2.6,2-9c.8-.2,2,4.7,2,5,1.8,15.6,2.2,26.7,8,42-.1,3.9-7,4.3-8.3.5.3-7.7-2.5-11.8-8.3-12.3l-1.4-2.2c-6-23.7-12.1-47.3-18-71h0Z"/>
    <path class="st23" d="M192.4,62.9c10.4-2.4,21.4-5.9,31.7-7.8.9-.2,2.2-.7,2.3.3l-21.3,77.7c-2,4-8.5,5.4-11.8,7.8l22-73.5c-8.1-1-21.3,8.5-23-4.5Z"/>
    <path class="st5" d="M411.4,129.9c-9.9,37.4-20.6,74.7-31,112l-2.1-20.4c-1.4-5.9-2.1-12.8-3.9-18.6,2.3-2.4,5,3.1,7.5,0,1.4-1.7,5.8-16,6.8-19.2,2.2-7.1,3.1-15.3,6-22,1.4-3.2,5.2-7.3,5.6-8.4.7-2.5,0-5.7.4-8.6,1-5.4,5.1-13,10.8-14.7h0Z"/>
    <path class="st25" d="M132.4,269.9l6.2,1.3c6,2.6,4.6,12.7,5.8,13.7.8.6,4.7-.7,6-1,1,2.8,5.4,9,4.9,11.3-.5,1.8-5.4,4.9-6.8,8.3-1.9,4.7.6,10-6.1,10.4-3.2-14.6-6.3-29.5-10-44h0Z"/>
    <path class="st32" d="M261.2,150.1c65-.3,108.2,70.1,79.5,128.6-31.5,64.3-123.7,66.3-157.9,3.1-32.1-59.3,11.4-131.5,78.4-131.8h0Z"/>
    <path class="st26" d="M328.4,281.9c-2.3,2.1-6.8,4.8-7,0-1.1-3.4,3.4-13.1,7-14l-.8-3.4c17.2-44.4-14.9-93.3-62.4-95.5l-2.8-2.1c-5.3-.9-7-5.9-1-7,62.5.3,100.3,68.6,67,122Z"/>
    <path class="st28" d="M197.4,201.9c1.2,3.5-1.4,11.7-5,13,1.4,1.1.9,2.9-1,3,2.4,2.5,0,9.7-3,11l1,1.7c-1.7,29.5,11.6,57.1,38.2,71.1l1.8,3.2c2.2-2.3,9.9,2.1,10,5,1.4,1.7,1.7,5.6-1,6-50.7-14.4-72-73.4-45-118,1.8-2.4,5.7,1.7,4,4h0Z"/>
    <path class="st13" d="M261.4,159.9c-3.3,3.4-1.3,4,1,7l-1.7,2c-5.9-.2-11.6.9-17.2,2.5l-2.1-1.5-2,2.6c-8.1,2.3-15.7,5.9-22.7,10.6l-3.3-.2c-3.4,1.3-4.7-2.7-2-5,16.2-12.9,28.6-18.1,50-18h0Z"/>
    <path class="st31" d="M328.4,281.9c-10.2,16.3-22.1,25.5-40,32-4.5,1.4-8.1-2-4-5-.4-2.9,3.7-4.8,6-3l.7-2.5c6.8-2.6,12.7-6.6,17.8-11.9l2.5.3c-.8-3.4,6.7-10.3,10-10,2.1,1.6,4.6-.3,7,0h0Z"/>
    <path class="st16" d="M284.4,308.9c-.3,2.8,1.2,4.8,4,5-17.2,6.2-32.2,7.1-50,2,.1-1.9-.8-4.9,1-6l1.7-1.6c6.6,1.5,13.3,2.4,20.1,2.6l1.2,2c2.4-2.1,5.8-3.1,10.2-3.2,4.6-1.8,8.6-2,11.8-.8Z"/>
    <path class="st15" d="M211.4,177.9c-.4,2.3,1.2,3.4,2,5,.9.3.9.6,0,1-.5,2.6-2.2,5.1-5.2,7.4-2.2,4.2-4.8,6.7-7.8,7.6,1.4,2.6-.4,4.1-3,3l-4-4c6.2-10.2,8.9-12.8,18-20Z"/>
    <path class="st9" d="M262.4,166.9c52.1.8,85.7,53,66,101l-2.2.8c-5.3-8.6-10.3-17.5-14.8-26.7-.4-2.2-.6-3.9,2.1-4.1l.7-2h13.6c.8-.4,1-7.8.6-9.1-.6-2.1-12.6-17-15.1-19.9-11.9-14.1-22.6-23.3-42.1-18.9-5.1.9-8-2.5-9.1-5.3l-1.6-1.7c-2.7,1.5-9.2-2.2-10-5-8.7,0-11.7-2.1-9-6,8.5-2.3,11.8-3.1,21-3h0Z"/>
    <path class="st33" d="M312.4,237.9c.2-.9.5-.9,1,0-1.5,6.7,4.2,10.7,6.9,15.6,2.4,4.6,3.8,11.3,8.1,14.4-1.8,4.3-4.4,10.3-7,14-2.4,3.4-7,7.1-10,10-1,.2-2,.1-2.8-.5-3-16.2-13.4-29.7-23.4-42.5-3.7-4-5-7.6-3.8-11,10.1-2.9,20.9-2.8,31,0h0Z"/>
    <path class="st29" d="M207.4,210.9l-1,2.4c-13,6.9-8.4,24.7,7.1,20.1l1.9,1.5c2.9.5,5.6,1.5,8,3l3.2,2.8c11.4,21.3,23.5,42.3,36.1,62.9,3.9,5.8,3.9,8.9-.3,9.3-6,.1-17.2-1.4-23-3-3.3-.9-7.1-3.5-10-5-7.3-12.1-13.8-25.2-19.8-38.1-3.6-7.8-7-18.3-5.9-26.8-5.4.7-10.2.1-14.3-1.8.2-3.9,0-7-.9-9.2.5-3.9,2-7.4,3-11,1.4-.2,1.8-1.2,1-3,1.5-4.5,2.6-8.8,5-13,.7-1.2,2.5-2.2,3-3,3.2-1,8.9,9.3,7,12h0Z"/>
    <path class="st24" d="M188.4,228.9c4.4-.4.3,6.7,2.9,8.6,2.1,1.5,11.9-.2,15.1.4-3.2,7,1.1,17.5,3.7,24.8,4.9,13.5,13,25.5,18.8,38.2.6,1.4,1.7,2.4.4,4-29-14.3-45.3-43.4-41-76h0Z"/>
    <path class="st24" d="M191.4,217.9c.3-1.1.6-1.9,1-3,3.9,1.2.8,5.7-1,3Z"/>
    <path class="st7" d="M241.4,169.9c2.4,7.1,3.4,3.8,9,6l-2.1,1.8c-10.2-.9-18.1,5.3-22.5,14l-2.4.2c-2.9,2.1-13.2-4.5-10-8-.1-.2.1-.7,0-1,9.3-6.3,17.1-10,28-13Z"/>
    <path class="st21" d="M272.4,237.9c3-2,6-2,9,0,3.1,8.8,10.4,15.4,15.4,23.1,3.5,5.4,9.3,14.9,11.4,20.6,1.3,3.6.5,7.6,3.2,10.3-8.4,8-10.4,9.5-21,14-.6.4-1.8.9-2.1.5-12.8-19-25.9-40-37.8-59.7-3-3.3-4-6.2-3.2-8.7,8.4-2.5,16.6-2.5,25,0h0Z"/>
    <path class="st14" d="M247.4,237.9l43,68c-1.8.8-3.5,2.2-6,3-6.5,2-15.3,3.8-22,4,2.1-1.6,2.2-.2,1.2-2.6-1.4-3.6-3.8-7.9-5.7-11.4-10.7-20.7-26.6-38.9-34.5-61,7.6-2.9,16.4-3,24,0h0Z"/>
    <path class="st6" d="M223.4,191.9c1.6,1.8,2.3,4.5,2.3,8.3,1.7,3,2.2,5.6,1.7,7.7,2.4,1.9-2.1,8.1-5,7-2,.3-4.2-.3-6.8-1.8-3.8.1-6.5-.6-8.2-2.2l-7-12c3.8-5.5,7.1-11.2,13-15,2.8,4.9,5.6,4.7,10,8Z"/>
    <path class="st17" d="M260.4,180.9c.5.2,2-.4,2.8.1,1.2.9-.4,3.7,3.9,4.6,5.6,1.1,9.8-1.1,14.8-.8,21,1.5,30.8,17.8,41.5,32.5,2.3,3.1,6.2,4.6,6.9,9.1.3,1.9.3,10.5-1.1,11.3-1,.6-13.2.1-15.9.1h-1l-2.1-1.1c-5.5-21.6-25-32.8-43.9-41.7l-3-2.2c-2.1-1.8-4.8-9.6-3-12h0Z"/>
    <path class="st30" d="M250.4,175.9c4.7.6,6.4,3.2,10,5,2,4.3,3.4,7,3,12,4.6,3.2-5.1,18.6-10,16,0,4.8-10,5.9-14.1,5.7s-13.1-1.7-11.9-6.7c-3.6-3.6-5.1-11.2-4-16,0-.4,3.4-5.7,4-6.5,5.7-7.5,13.6-10.7,23-9.5h0Z"/>
    <path class="st4" d="M312.4,237.9c-10.3,0-20.7,0-31,0h-9c-2.4-1.1-4.4-3.2-6-6.5l-11.6-13.6c-3-3.7-3.5-6.7-1.5-8.9,4.9-3.1,9.6-10.1,10-16,2.1-1.8,2.5-.4,4,.4,14.1,7.9,23.7,10.4,34.5,23.5,4.5,5.4,9.9,14,10.5,21h0Z"/>
    <path class="st22" d="M253.4,208.9c1.8,11.5,15.1,17.7,19,29-8.3,0-16.7,0-25,0s-16,.1-24,0c-3,0-6,0-9,0l1-3v-2.2c5.7-2.9,9.2-10,6-15.8l1.1-2,5-7c6.6,6.7,18.6,5.6,26,1h0Z"/>
    <path class="st32" d="M222.4,214.9c5.2,6.8.4,17.2-7,20-8.5,3.1-17,.6-18.6-9-1-5.9,4.9-13.9,10.6-15,4.7-.9,11.9,0,15,4Z"/>
  </g>
  <g>
    <path class="st2" d="M584.8,351.6c-5.9,1.6-11.7,2.4-17.4,2.4-13.9,0-24-2.9-30.2-8.6-6.2-5.7-9.2-15.6-9.2-29.8v-76.9h-24.4v-23.3h24.4v-19c0-5.9-.3-10.1-.8-12.5-.5-2.4-1.8-4.3-3.8-5.8v-.3h26.8c3.9,0,6.5,1.2,7.6,3.5,1.2,2.3,1.7,6.3,1.7,11.8v22.2h33.5v23.3h-33.5v72.4c0,6.6,1.2,11,3.8,13.1,2.5,2.1,6.6,3.2,12.3,3.2s6.6-.5,9.5-1.5,5-2.1,6-3.4l3.2,20.9c.5,3.4-2.7,6.1-9.7,8h0Z"/>
    <path class="st2" d="M634.2,346.4c-10.6-5.8-19-14.2-24.9-25.1-6-10.9-9-23.6-9-38.1s3-27.2,9-38.1,14.2-19.3,24.8-25.2c10.5-5.9,22.5-8.9,35.9-8.9s18,1.3,26,3.9c8,2.6,14.6,6.1,19.6,10.6s7.5,8.1,7.5,11-.7,3.1-2.2,4.6l-15,15c-.4-1.6-1.4-3.5-3.2-5.6-1.8-2.1-3.9-4.1-6.4-5.9-3.8-2.9-7.7-4.9-11.8-6s-8.8-1.7-14.2-1.7c-11.8,0-21,4.5-27.8,13.4-6.7,8.9-10,19.9-10,33s3.4,24,10.2,32.8c6.8,8.9,16.1,13.3,27.9,13.3s10.2-.9,15-2.8c4.8-1.9,9-4.5,12.6-7.9,5.2-5,8.2-9,9.1-12.1l16.3,13.7c1.4,1.2,2.1,2.7,2.1,4.3,0,2.7-2.3,6.5-7,11.5-12.2,12.7-28.3,19-48.5,19s-25.4-2.9-36.1-8.7h0Z"/>
    <path class="st2" d="M867.6,215.4v.3c-2,1.4-3.2,3.4-3.8,5.8s-.8,6.6-.8,12.5v108.6c0,18.4-5.9,32.6-17.6,42.6-11.7,10-27.1,15-46.2,15s-19.5-.9-27-2.8-14.7-4.6-21.8-8.2c-7.5-3.8-11.3-7.3-11.3-10.7s.3-1.8.8-2.7l12.1-18c.7,1.4,2.2,3,4.6,4.7,2.3,1.7,5,3.3,8,4.7,10.4,5,21.5,7.5,33.2,7.5s18.7-2.7,24.9-8.2c6.2-5.5,9.4-14.1,9.4-25.9v-13.7c-8.9,14.1-22.5,21.2-40.8,21.2s-21.7-2.9-30.7-8.6-16.1-13.8-21.2-24.1c-5.1-10.4-7.6-22.2-7.6-35.7s2.5-25.3,7.6-35.7c5.1-10.4,12.2-18.4,21.3-24.3s19.3-8.7,30.6-8.7c19.5,0,33.6,8,42.4,23.9v-4.3c0-5.5.6-9.5,1.7-11.8,1.2-2.3,3.7-3.5,7.6-3.5h24.4ZM823.5,309.8c6.5-7.7,9.8-17.7,9.8-30s-3.3-22.6-9.8-30.3c-6.5-7.7-15-11.5-25.3-11.5s-18.7,3.9-24.9,11.5c-6.3,7.7-9.4,17.8-9.4,30.3s3.1,22.4,9.4,30c6.2,7.7,14.6,11.5,24.9,11.5s18.8-3.8,25.3-11.5Z"/>
    <path class="st19" d="M911.9,350.8c-8.2-2.9-15.9-6.7-23.1-11.5-6.1-4.1-9.1-7.9-9.1-11.3s.4-2,1.3-3.2l14.5-16.1c.5,1.4,1.9,3.2,4.2,5.2,2.2,2.1,4.7,3.9,7.4,5.5,5.7,3.4,11.3,6,16.8,7.9,5.5,1.9,11.8,2.8,19.2,2.8s13.4-1.6,18.2-4.7c4.8-3.1,7.2-7.3,7.2-12.5s-1.4-6.8-4.3-9-6.4-4-10.7-5.2c-4.3-1.2-11-2.9-20.1-4.8-12.5-2.9-22.3-6-29.5-9.4-7.2-3.4-12.3-7.5-15.4-12.3-3.1-4.8-4.7-10.9-4.7-18.2s2.3-15.3,6.8-21.9c4.6-6.5,11-11.7,19.4-15.4,8.4-3.8,18.1-5.6,29.2-5.6s17.6,1,25.5,2.9c7.9,2,14.8,4.9,20.6,8.9,2.9,1.8,5,3.6,6.6,5.5s2.3,3.6,2.3,5.2-.5,2.2-1.3,3.5l-13.1,15.8c-.5-1.4-1.9-3-4-4.8-2.1-1.8-4.7-3.5-7.5-5.1-8.8-4.6-18.6-7-29.5-7s-13.5,1.4-18.1,4.3-6.8,6.6-6.8,11.3,1.1,5.2,3.2,7c2.2,1.8,5.5,3.4,9.9,4.8s11.2,3.1,20.1,5.1c12.7,2.9,22.7,6,30.2,9.4,7.4,3.4,12.9,7.8,16.5,13.1,3.6,5.4,5.4,12.2,5.4,20.4,0,13-5.1,23.6-15.3,31.6-10.2,8-24.1,12.1-41.8,12.1s-21.8-1.4-30-4.3h0Z"/>
    <path class="st19" d="M1043.4,346.4c-10.6-5.8-18.9-14.2-24.9-25.1-6-10.9-9-23.6-9-38.1s3-27.2,9-38.1c6-10.9,14.2-19.3,24.8-25.2,10.5-5.9,22.5-8.9,35.9-8.9s18,1.3,26,3.9c8,2.6,14.6,6.1,19.6,10.6s7.5,8.1,7.5,11-.7,3.1-2.2,4.6l-15,15c-.4-1.6-1.4-3.5-3.2-5.6-1.8-2.1-3.9-4.1-6.4-5.9-3.8-2.9-7.7-4.9-11.8-6-4.1-1.2-8.8-1.7-14.2-1.7-11.8,0-21.1,4.5-27.8,13.4-6.7,8.9-10.1,19.9-10.1,33s3.4,24,10.2,32.8c6.8,8.9,16.1,13.3,27.9,13.3s10.2-.9,15-2.8c4.8-1.9,9-4.5,12.6-7.9,5.2-5,8.2-9,9.1-12.1l16.3,13.7c1.4,1.2,2.1,2.7,2.1,4.3,0,2.7-2.3,6.5-7,11.5-12.2,12.7-28.3,19-48.5,19s-25.4-2.9-36.1-8.7h0Z"/>
    <path class="st19" d="M1274.3,350.8v.3h-25.7c-3.4,0-5.9-1.2-7.4-3.8-1.5-2.5-2.6-7.1-3.3-13.7-4.1,6.8-10,12.2-17.7,16.1s-16.7,5.9-27.1,5.9-25.3-3.3-34.2-9.8c-8.8-6.5-13.3-16.3-13.3-29.4s5.4-24.7,16.1-31.6c10.7-7,26-12.2,45.8-15.8l29.5-5.1v-3.8c0-7.5-2.5-13.3-7.5-17.4-5-4.1-11.7-6.2-20.1-6.2s-22.5,3.9-32.2,11.8c-5.9,4.6-9.1,8.4-9.7,11.3l-15.8-13.9c-1.2-1.1-1.9-2.4-1.9-4,0-3,2.3-6.6,7-10.7,6.6-5.7,14-10.5,22.2-14.2s18.2-5.6,30-5.6c18.6,0,32.9,4.3,42.9,13,10,8.7,15,20.2,15,34.7v65.4c0,14.3,2.4,23.1,7.2,26.5h0ZM1226.1,322.5c7.3-5.8,11-14.6,11-26.4v-9.1l-26.3,5.1c-12,2.3-20.8,5-26.4,8.2s-8.4,7.9-8.4,14.3,2.1,9.2,6.3,12.2c4.2,3,10,4.4,17.3,4.4s19.2-2.9,26.5-8.7h0Z"/>
    <path class="st19" d="M1412.9,345c.5,2.4,1.8,4.3,3.8,5.8v.3h-26.8c-3.9,0-6.5-1.2-7.6-3.5-1.2-2.3-1.7-6.2-1.7-11.8v-68.4c0-9.8-2.3-17.3-6.8-22.4-4.6-5.1-11.2-7.6-20-7.6s-15.4,2.9-20.9,8.7c-5.5,5.8-8.3,13.3-8.3,22.4v64.1c0,5.9.3,10,.8,12.5.5,2.4,1.8,4.3,3.8,5.8v.3h-26.8c-3.9,0-6.5-1.2-7.6-3.5-1.2-2.3-1.7-6.2-1.7-11.8v-101.9c0-5.9-.3-10.1-.8-12.5s-1.8-4.3-3.8-5.8v-.3h25.2c3.9,0,6.5,1.2,7.6,3.5s1.7,6.3,1.7,11.8v3.2c4.3-7.5,9.9-13.2,16.8-17,6.9-3.8,14.9-5.8,24-5.8,15.6,0,27.5,4.3,35.9,13,8.4,8.7,12.6,20,12.6,33.9v74.5c0,5.9.3,10,.8,12.5h0Z"/>
    <path class="st19" d="M1557.2,345c.5,2.4,1.8,4.3,3.8,5.8v.3h-26.8c-3.9,0-6.5-1.2-7.6-3.5-1.2-2.3-1.7-6.2-1.7-11.8v-68.4c0-9.8-2.3-17.3-6.8-22.4-4.6-5.1-11.2-7.6-20-7.6s-15.4,2.9-20.9,8.7c-5.5,5.8-8.3,13.3-8.3,22.4v64.1c0,5.9.3,10,.8,12.5.5,2.4,1.8,4.3,3.8,5.8v.3h-26.8c-3.9,0-6.5-1.2-7.6-3.5-1.2-2.3-1.7-6.2-1.7-11.8v-101.9c0-5.9-.3-10.1-.8-12.5s-1.8-4.3-3.8-5.8v-.3h25.2c3.9,0,6.5,1.2,7.6,3.5s1.7,6.3,1.7,11.8v3.2c4.3-7.5,9.9-13.2,16.8-17,6.9-3.8,14.9-5.8,24-5.8,15.6,0,27.5,4.3,35.9,13,8.4,8.7,12.6,20,12.6,33.9v74.5c0,5.9.3,10,.8,12.5h0Z"/>
    <path class="st19" d="M1703.6,290.5h-99.2c1.1,11.6,5.1,21,11.9,28.1s16.4,10.7,28.6,10.7,22.6-3.4,30.8-10.2c5.4-4.5,8.6-8.2,9.7-11.3l13.1,14.5c1.2,1.4,1.9,3,1.9,4.6,0,3-2.3,6.6-7,10.7-12.2,11.6-28.6,17.4-49.3,17.4s-26.7-3-37.3-8.9-18.7-14.2-24.4-24.8c-5.7-10.6-8.6-23.1-8.6-37.4s2.7-26.7,8.2-37.7c5.4-11,13.3-19.6,23.5-25.9,10.2-6.2,22.1-9.4,35.7-9.4,20.2,0,35.8,6,46.7,18,10.9,12,16.3,28.3,16.3,49.1s-.2,9.1-.5,12.3h0ZM1617.2,243.8c-6.1,5.7-10.1,13.7-12.1,23.9h68.6c-.7-10-3.9-17.9-9.7-23.7s-13.5-8.7-23.3-8.7-17.5,2.9-23.6,8.6h0Z"/>
    <path class="st19" d="M1808.5,217.3c1.7,1.1,2.3,2.7,1.7,4.8l-5.4,24.1c-1.2-1.2-3.6-2.3-7-3.2-3.4-.9-7.4-1.3-12.1-1.3-9.8,0-17.4,3.6-22.8,10.9s-8,17.3-8,30.2v49.9c0,5.9.3,10,.8,12.5.5,2.4,1.8,4.3,3.8,5.8v.3h-26.8c-3.9,0-6.5-1.2-7.6-3.5-1.2-2.3-1.7-6.2-1.7-11.8v-101.9c0-5.9-.3-10.1-.8-12.5s-1.8-4.3-3.8-5.8v-.3h25.2c3.9,0,6.5,1.2,7.6,3.5s1.7,6.3,1.7,11.8v6.7c7-16.3,18.5-24.4,34.6-24.4s9.5.5,13.9,1.6c2.7.7,4.9,1.6,6.6,2.7h0Z"/>
  </g>
</svg>